<svg width="24" height="24" viewBox="0 0 24 24" fill="none" xmlns="http://www.w3.org/2000/svg">
<rect width="24" height="24" rx="3" fill="white"/>
<path opacity="0.2" d="M19.9772 16.17C19.25 17.5609 18.1717 18.7375 16.8493 19.583C15.527 20.4285 14.0064 20.9134 12.4387 20.9897L12.7359 19.4484C12.758 19.3327 12.7526 19.2135 12.72 19.1003C12.6874 18.9871 12.6287 18.8831 12.5484 18.7969L10.6978 16.8909C10.598 16.7833 10.5321 16.6487 10.5081 16.5038C10.4841 16.359 10.5031 16.2104 10.5628 16.0763L11.8472 13.1944C11.9132 13.0463 12.0255 12.9236 12.1671 12.8446C12.3087 12.7657 12.4721 12.7348 12.6328 12.7566L14.7722 13.0453C14.8758 13.0595 14.9754 13.0949 15.0647 13.1494L19.9772 16.17ZM10.9416 8.90625L12.0937 8.2725C12.1446 8.245 12.1918 8.21131 12.2344 8.17219L14.7572 5.89125C14.8828 5.77704 14.9659 5.62362 14.9929 5.45605C15.02 5.28849 14.9895 5.1167 14.9062 4.96875L13.9219 3.20532C13.2904 3.06853 12.6461 2.9997 12 3C9.94564 2.99687 7.95256 3.69951 6.35437 4.99032L5.25 7.60125C5.1754 7.778 5.17137 7.97662 5.23875 8.15625L6.31687 11.0316C6.36117 11.149 6.43425 11.2535 6.52942 11.3354C6.62458 11.4173 6.73879 11.474 6.86156 11.5003L7.11375 11.5547L8.3625 9.375C8.42842 9.26083 8.52327 9.16604 8.63749 9.10021C8.75172 9.03437 8.88128 8.99981 9.01312 9H10.5797C10.7063 9.00021 10.8309 8.96793 10.9416 8.90625Z" fill="#1A1A1A"/>
<path d="M12 2.25C10.0716 2.25 8.18657 2.82183 6.58319 3.89317C4.97982 4.96452 3.73013 6.48726 2.99218 8.26884C2.25422 10.0504 2.06114 12.0108 2.43735 13.9021C2.81355 15.7934 3.74215 17.5307 5.10571 18.8943C6.46928 20.2579 8.20656 21.1865 10.0979 21.5627C11.9892 21.9389 13.9496 21.7458 15.7312 21.0078C17.5127 20.2699 19.0355 19.0202 20.1068 17.4168C21.1782 15.8134 21.75 13.9284 21.75 12C21.7473 9.41498 20.7192 6.93661 18.8913 5.10872C17.0634 3.28084 14.585 2.25273 12 2.25ZM20.25 12C20.2508 13.0584 20.0471 14.107 19.65 15.0881L15.4594 12.5109C15.2812 12.401 15.0819 12.3298 14.8744 12.3019L12.735 12.0131C12.4402 11.9747 12.1406 12.0241 11.8738 12.1552C11.607 12.2863 11.3848 12.4932 11.235 12.75H10.4175L10.0613 12.0131C9.96277 11.8079 9.81863 11.628 9.63988 11.4871C9.46114 11.3462 9.25252 11.2481 9.03 11.2003L8.28 11.0381L9.01313 9.75H10.5797C10.8332 9.7495 11.0825 9.68501 11.3044 9.5625L12.4528 8.92875C12.5537 8.87251 12.648 8.80522 12.7341 8.72812L15.2569 6.44625C15.5098 6.21957 15.6779 5.91345 15.7335 5.57838C15.7891 5.24331 15.7287 4.89931 15.5625 4.60312L15.5288 4.54219C16.9404 5.21156 18.1333 6.26756 18.969 7.58761C19.8047 8.90767 20.2489 10.4377 20.25 12ZM13.4353 3.87563L14.25 5.33438L11.7272 7.61625L10.5797 8.25H9.01313C8.74945 8.24961 8.49033 8.31874 8.26188 8.45041C8.03342 8.58208 7.84372 8.77165 7.71188 9L6.89344 10.4278L5.94188 7.89281L6.9675 5.4675C7.87532 4.76606 8.91965 4.26197 10.0336 3.98752C11.1475 3.71307 12.3065 3.67432 13.4363 3.87375L13.4353 3.87563ZM3.75 12C3.74875 10.7738 4.02233 9.56284 4.55063 8.45625L5.61375 11.2941C5.70235 11.529 5.84852 11.738 6.03885 11.9018C6.22918 12.0656 6.45759 12.179 6.70313 12.2316L8.71219 12.6638L9.06938 13.4062C9.19334 13.6588 9.38545 13.8716 9.62401 14.0207C9.86256 14.1698 10.1381 14.2492 10.4194 14.25H10.5581L9.88032 15.7716C9.76089 16.0395 9.72264 16.3365 9.77029 16.626C9.81795 16.9154 9.94942 17.1845 10.1484 17.4L10.1616 17.4131L12 19.3069L11.8181 20.2444C9.66359 20.1942 7.61396 19.3041 6.10662 17.7638C4.59927 16.2235 3.75358 14.1551 3.75 12ZM13.3669 20.1356L13.4728 19.5909C13.5164 19.3595 13.5051 19.1211 13.44 18.8949C13.3749 18.6686 13.2577 18.4607 13.0978 18.2878C13.0932 18.2837 13.0888 18.2793 13.0847 18.2747L11.25 16.3819L12.5344 13.5L14.6738 13.7888L18.96 16.425C18.339 17.4002 17.5204 18.2343 16.557 18.8735C15.5936 19.5127 14.5068 19.9426 13.3669 20.1356Z" fill="#1A1A1A"/>
</svg>
